<svg width="42" height="55" viewBox="0 0 42 55" fill="none" xmlns="http://www.w3.org/2000/svg">
<path fill-rule="evenodd" clip-rule="evenodd" d="M0.000475445 20.5202C0.000780255 20.5489 0.00104019 20.5734 0.0010402 20.6031L0.00105607 50.2366C0.00105723 52.4038 1.7579 54.1606 3.92506 54.1606H20.8236H37.7221C39.8893 54.1606 41.6461 52.4038 41.6461 50.2366V20.6031C41.6461 20.5733 41.6464 20.5488 41.6467 20.52L41.6468 20.5104C41.6575 19.4862 41.5755 0.553711 20.8236 0.553711C0.0716107 0.553711 -0.0103752 19.4862 0.000371035 20.5104L0.000475445 20.5202ZM20.8216 32.5788C25.8899 32.5788 29.9987 28.4701 29.9987 23.4017C29.9987 18.3333 25.8899 14.2246 20.8216 14.2246C15.7532 14.2246 11.6445 18.3333 11.6445 23.4017C11.6445 28.4701 15.7532 32.5788 20.8216 32.5788Z" fill="#0B7CB4"/>
<path d="M40.9669 19.1692C34.609 10.2549 29.5822 25.4573 28.0972 26.2975C26.565 27.1645 25.5023 24.5295 24.1099 25.1583C22.7175 25.7871 3.73047 54.1453 3.73047 54.1453H37.6541C39.8212 54.1453 41.5781 52.3885 41.5781 50.2213V21.2037C41.5781 20.4788 41.3878 19.7594 40.9669 19.1692Z" fill="#278D29"/>
<path d="M41.6454 33.2413C38.44 30.7253 31.2947 45.755 29.692 48.3372C28.0893 50.9194 24.6836 54.0975 24.6836 54.0975H37.7214C39.8886 54.0975 41.6454 52.3406 41.6454 50.1735V33.2413Z" fill="#D8D8D8"/>
<path d="M41.65 34.161C38.612 31.7559 31.84 46.1229 30.321 48.5912C28.802 51.0595 25.5742 54.0974 25.5742 54.0974H37.726C39.8931 54.0974 41.65 52.3406 41.65 50.1734V34.161Z" fill="#094C2D"/>
</svg>
